<svg width="1440" height="840" viewBox="0 0 1440 840" fill="none" xmlns="http://www.w3.org/2000/svg" role="img" aria-label="AI lending concierge hero visual">
  <defs>
    <radialGradient id="bgRadial" cx="0" cy="0" r="1" gradientUnits="userSpaceOnUse" gradientTransform="translate(280 140) rotate(35) scale(1220 980)">
      <stop stop-color="#1C1630"/>
      <stop offset="0.55" stop-color="#0A1017"/>
      <stop offset="1" stop-color="#070B10"/>
    </radialGradient>
    <linearGradient id="accent" x1="140" y1="90" x2="1300" y2="760" gradientUnits="userSpaceOnUse">
      <stop stop-color="#DED6FF"/>
      <stop offset="0.5" stop-color="#8B5CF6"/>
      <stop offset="1" stop-color="#4F46E5"/>
    </linearGradient>
    <pattern id="grid" width="40" height="40" patternUnits="userSpaceOnUse">
      <path d="M40 0H0V40" fill="none" stroke="#2A3A4C" stroke-width="1" opacity="0.55"/>
    </pattern>
    <filter id="glow" x="-20%" y="-20%" width="140%" height="140%">
      <feGaussianBlur stdDeviation="12" result="blur"/>
      <feColorMatrix in="blur" type="matrix" values="1 0 0 0 0  0 1 0 0 0  0 0 1 0 0  0 0 0 0.28 0" result="glow"/>
      <feMerge>
        <feMergeNode in="glow"/>
        <feMergeNode in="SourceGraphic"/>
      </feMerge>
    </filter>
  </defs>

  <rect width="1440" height="840" rx="40" fill="url(#bgRadial)"/>
  <rect width="1440" height="840" rx="40" fill="url(#grid)" opacity="0.14"/>

  <rect x="82" y="84" width="554" height="672" rx="30" fill="#0C141D" stroke="#243242"/>
  <rect x="82" y="84" width="554" height="672" rx="30" fill="url(#grid)" opacity="0.12"/>
  <path d="M122 174H596" stroke="url(#accent)" stroke-width="3" opacity="0.9"/>

  <text x="122" y="142" fill="#DED6FF" font-family="ui-sans-serif, system-ui, -apple-system, Segoe UI, Roboto, Arial" font-size="22" font-weight="750" letter-spacing="3">INTAKE LOGIC</text>
  <text x="122" y="206" fill="#F2F5F7" font-family="ui-sans-serif, system-ui, -apple-system, Segoe UI, Roboto, Arial" font-size="48" font-weight="800">Guide early conversations</text>
  <text x="122" y="252" fill="#AAB5BF" font-family="ui-sans-serif, system-ui, -apple-system, Segoe UI, Roboto, Arial" font-size="24">Collect the missing information that moves the process forward.</text>

  <g filter="url(#glow)">
    <rect x="122" y="316" width="474" height="80" rx="22" fill="#0E1822" stroke="#2B4158"/>
    <rect x="122" y="422" width="474" height="80" rx="22" fill="#0E1822" stroke="#2B4158"/>
    <rect x="122" y="528" width="474" height="80" rx="22" fill="#0E1822" stroke="#2B4158"/>
    <rect x="122" y="316" width="210" height="80" rx="22" fill="url(#accent)" opacity="0.12"/>
    <rect x="122" y="422" width="270" height="80" rx="22" fill="url(#accent)" opacity="0.1"/>
    <rect x="122" y="528" width="180" height="80" rx="22" fill="url(#accent)" opacity="0.08"/>

    <circle cx="154" cy="356" r="7" fill="#DED6FF"/>
    <circle cx="154" cy="462" r="7" fill="#8B5CF6"/>
    <circle cx="154" cy="568" r="7" fill="#4F46E5"/>
  </g>

  <text x="176" y="366" fill="#F2F5F7" font-family="ui-sans-serif, system-ui, -apple-system, Segoe UI, Roboto, Arial" font-size="28" font-weight="750">Structured missing-info capture</text>
  <text x="176" y="472" fill="#F2F5F7" font-family="ui-sans-serif, system-ui, -apple-system, Segoe UI, Roboto, Arial" font-size="28" font-weight="750">Explicit secure-channel boundaries</text>
  <text x="176" y="578" fill="#F2F5F7" font-family="ui-sans-serif, system-ui, -apple-system, Segoe UI, Roboto, Arial" font-size="28" font-weight="750">Human escalation for complex cases</text>

  <rect x="742" y="146" width="576" height="548" rx="34" fill="#0C141D" stroke="#243242"/>
  <rect x="742" y="146" width="576" height="548" rx="34" fill="url(#grid)" opacity="0.1"/>
  <path d="M786 238H1276" stroke="url(#accent)" stroke-width="3" opacity="0.8"/>

  <text x="786" y="216" fill="#DED6FF" font-family="ui-sans-serif, system-ui, -apple-system, Segoe UI, Roboto, Arial" font-size="20" font-weight="750" letter-spacing="2">ROUTING VIEW</text>

  <g filter="url(#glow)">
    <rect x="786" y="270" width="488" height="92" rx="24" fill="#0B131B" stroke="#22384D"/>
    <rect x="786" y="390" width="488" height="92" rx="24" fill="#0B131B" stroke="#22384D"/>
    <rect x="786" y="510" width="488" height="92" rx="24" fill="#0B131B" stroke="#22384D"/>

    <path d="M818 340H906" stroke="url(#accent)" stroke-width="3" stroke-linecap="round" opacity="0.85"/>
    <path d="M818 460H956" stroke="url(#accent)" stroke-width="3" stroke-linecap="round" opacity="0.6"/>
    <path d="M818 580H1004" stroke="url(#accent)" stroke-width="3" stroke-linecap="round" opacity="0.45"/>
  </g>

  <text x="822" y="324" fill="#F2F5F7" font-family="ui-sans-serif, system-ui, -apple-system, Segoe UI, Roboto, Arial" font-size="28" font-weight="750">Complete details and route next step</text>
  <text x="822" y="444" fill="#F2F5F7" font-family="ui-sans-serif, system-ui, -apple-system, Segoe UI, Roboto, Arial" font-size="28" font-weight="750">Missing fields trigger targeted follow-up</text>
  <text x="822" y="564" fill="#F2F5F7" font-family="ui-sans-serif, system-ui, -apple-system, Segoe UI, Roboto, Arial" font-size="28" font-weight="750">Qualified lead arrives with stronger context</text>
</svg>
