<svg width="1200" height="720" viewBox="0 0 1200 720" fill="none" xmlns="http://www.w3.org/2000/svg" role="img" aria-label="AI intern lending concierge cover visual">
  <defs>
    <radialGradient id="bgRadial" cx="0" cy="0" r="1" gradientUnits="userSpaceOnUse" gradientTransform="translate(260 130) rotate(35) scale(980 820)">
      <stop stop-color="#1C1630"/>
      <stop offset="0.55" stop-color="#0B1118"/>
      <stop offset="1" stop-color="#070B10"/>
    </radialGradient>
    <linearGradient id="panelGrad" x1="42" y1="42" x2="1158" y2="678" gradientUnits="userSpaceOnUse">
      <stop stop-color="#111A2A"/>
      <stop offset="1" stop-color="#0C141D"/>
    </linearGradient>
    <linearGradient id="accent" x1="84" y1="214" x2="1116" y2="214" gradientUnits="userSpaceOnUse">
      <stop stop-color="#B8A1FF"/>
      <stop offset="0.5" stop-color="#8B5CF6"/>
      <stop offset="1" stop-color="#4F46E5"/>
    </linearGradient>
    <pattern id="grid" width="36" height="36" patternUnits="userSpaceOnUse">
      <path d="M36 0H0V36" fill="none" stroke="#2A3A4C" stroke-width="1" opacity="0.55"/>
    </pattern>
    <filter id="softGlow" x="-20%" y="-20%" width="140%" height="140%">
      <feGaussianBlur stdDeviation="10" result="blur"/>
      <feColorMatrix in="blur" type="matrix" values="1 0 0 0 0  0 1 0 0 0  0 0 1 0 0  0 0 0 0.32 0" result="glow"/>
      <feMerge>
        <feMergeNode in="glow"/>
        <feMergeNode in="SourceGraphic"/>
      </feMerge>
    </filter>
  </defs>

  <rect width="1200" height="720" rx="40" fill="url(#bgRadial)"/>
  <rect x="42" y="42" width="1116" height="636" rx="32" fill="url(#panelGrad)" stroke="#243242"/>
  <rect x="42" y="42" width="1116" height="636" rx="32" fill="url(#grid)" opacity="0.18"/>
  <path d="M84 212H1116" stroke="url(#accent)" stroke-width="3" opacity="0.9"/>

  <text x="84" y="114" fill="#DED6FF" font-family="ui-sans-serif, system-ui, -apple-system, Segoe UI, Roboto, Arial" font-size="22" font-weight="750" letter-spacing="3">LENDING CONCIERGE FLOW</text>
  <text x="84" y="164" fill="#F2F5F7" font-family="ui-sans-serif, system-ui, -apple-system, Segoe UI, Roboto, Arial" font-size="48" font-weight="800">AI intake with explicit human handoff</text>

  <g filter="url(#softGlow)">
    <rect x="84" y="236" width="1032" height="278" rx="30" fill="#0B131B" stroke="#22384D"/>

    <path d="M166 376C224 330 312 330 370 376" stroke="#2B4158" stroke-width="2" opacity="0.7"/>
    <path d="M394 376C452 330 540 330 598 376" stroke="#2B4158" stroke-width="2" opacity="0.7"/>
    <path d="M622 376C680 330 768 330 826 376" stroke="#2B4158" stroke-width="2" opacity="0.7"/>
    <path d="M850 376C908 330 996 330 1054 376" stroke="#2B4158" stroke-width="2" opacity="0.7"/>

    <circle cx="220" cy="376" r="62" fill="#0E1822" stroke="url(#accent)" stroke-width="3"/>
    <circle cx="448" cy="376" r="62" fill="#0E1822" stroke="url(#accent)" stroke-width="3" opacity="0.92"/>
    <circle cx="676" cy="376" r="62" fill="#0E1822" stroke="url(#accent)" stroke-width="3" opacity="0.86"/>
    <circle cx="904" cy="376" r="62" fill="#0E1822" stroke="url(#accent)" stroke-width="3" opacity="0.8"/>

    <path d="M282 376H386" stroke="url(#accent)" stroke-width="4" stroke-linecap="round"/>
    <path d="M510 376H614" stroke="url(#accent)" stroke-width="4" stroke-linecap="round"/>
    <path d="M738 376H842" stroke="url(#accent)" stroke-width="4" stroke-linecap="round"/>

    <text x="186" y="384" fill="#F2F5F7" font-family="ui-sans-serif, system-ui, -apple-system, Segoe UI, Roboto, Arial" font-size="22" font-weight="800">Lead</text>
    <text x="412" y="384" fill="#F2F5F7" font-family="ui-sans-serif, system-ui, -apple-system, Segoe UI, Roboto, Arial" font-size="22" font-weight="800">Collect</text>
    <text x="642" y="384" fill="#F2F5F7" font-family="ui-sans-serif, system-ui, -apple-system, Segoe UI, Roboto, Arial" font-size="22" font-weight="800">Route</text>
    <text x="864" y="384" fill="#F2F5F7" font-family="ui-sans-serif, system-ui, -apple-system, Segoe UI, Roboto, Arial" font-size="22" font-weight="800">Human</text>

    <rect x="144" y="458" width="912" height="34" rx="17" fill="#0E1822" stroke="#2B4158"/>
    <rect x="144" y="458" width="616" height="34" rx="17" fill="url(#accent)" opacity="0.25"/>
    <text x="164" y="482" fill="#AAB5BF" font-family="ui-sans-serif, system-ui, -apple-system, Segoe UI, Roboto, Arial" font-size="18">Automation handles repetitive intake → human advisor takes the final call</text>
  </g>

  <text x="84" y="580" fill="#AAB5BF" font-family="ui-sans-serif, system-ui, -apple-system, Segoe UI, Roboto, Arial" font-size="24">
    Reduced repetitive intake work while protecting trust, boundaries, and expert time.
  </text>
</svg>
