<svg width="1440" height="840" viewBox="0 0 1440 840" fill="none" xmlns="http://www.w3.org/2000/svg" role="img" aria-label="Reproducible model training system hero visual">
  <defs>
    <radialGradient id="bgRadial" cx="0" cy="0" r="1" gradientUnits="userSpaceOnUse" gradientTransform="translate(300 150) rotate(35) scale(1220 980)">
      <stop stop-color="#102A22"/>
      <stop offset="0.55" stop-color="#0A1017"/>
      <stop offset="1" stop-color="#070B10"/>
    </radialGradient>
    <linearGradient id="accent" x1="160" y1="90" x2="1320" y2="760" gradientUnits="userSpaceOnUse">
      <stop stop-color="#6EE7B7"/>
      <stop offset="0.55" stop-color="#22C55E"/>
      <stop offset="1" stop-color="#F59E0B"/>
    </linearGradient>
    <pattern id="grid" width="40" height="40" patternUnits="userSpaceOnUse">
      <path d="M40 0H0V40" fill="none" stroke="#2A3A4C" stroke-width="1" opacity="0.55"/>
    </pattern>
    <filter id="glow" x="-20%" y="-20%" width="140%" height="140%">
      <feGaussianBlur stdDeviation="12" result="blur"/>
      <feColorMatrix in="blur" type="matrix" values="1 0 0 0 0  0 1 0 0 0  0 0 1 0 0  0 0 0 0.28 0" result="glow"/>
      <feMerge>
        <feMergeNode in="glow"/>
        <feMergeNode in="SourceGraphic"/>
      </feMerge>
    </filter>
  </defs>

  <rect width="1440" height="840" rx="40" fill="url(#bgRadial)"/>
  <rect width="1440" height="840" rx="40" fill="url(#grid)" opacity="0.14"/>

  <g filter="url(#glow)">
    <circle cx="1224" cy="168" r="152" fill="#0F2636"/>
    <circle cx="1224" cy="168" r="86" fill="#0E3043" stroke="url(#accent)" stroke-width="3"/>
    <path d="M1168 168H1280" stroke="url(#accent)" stroke-width="3" stroke-linecap="round" opacity="0.8"/>
    <path d="M1224 112V224" stroke="url(#accent)" stroke-width="3" stroke-linecap="round" opacity="0.8"/>
    <circle cx="1224" cy="168" r="10" fill="#6EE7B7"/>
  </g>

  <rect x="82" y="86" width="1276" height="668" rx="34" fill="#0C141D" stroke="#243242"/>
  <rect x="82" y="86" width="1276" height="668" rx="34" fill="url(#grid)" opacity="0.1"/>
  <path d="M128 188H1312" stroke="url(#accent)" stroke-width="3" opacity="0.85"/>

  <text x="128" y="152" fill="#B9FFE1" font-family="ui-sans-serif, system-ui, -apple-system, Segoe UI, Roboto, Arial" font-size="22" font-weight="750" letter-spacing="3">MODEL OPS VIEW</text>
  <text x="128" y="214" fill="#F2F5F7" font-family="ui-sans-serif, system-ui, -apple-system, Segoe UI, Roboto, Arial" font-size="48" font-weight="800">A lendability model wrapped in repeatable evaluation</text>

  <rect x="128" y="282" width="1184" height="400" rx="30" fill="#0B131B" stroke="#22384D"/>
  <path d="M176 612H1188" stroke="#22384D" stroke-width="2"/>
  <path d="M176 350V612" stroke="#22384D" stroke-width="2"/>

  <g filter="url(#glow)">
    <polyline points="208,538 338,484 468,506 598,436 728,462 858,372 988,404 1118,328" fill="none" stroke="url(#accent)" stroke-width="6" stroke-linecap="round" stroke-linejoin="round"/>
    <circle cx="208" cy="538" r="7" fill="#6EE7B7"/>
    <circle cx="338" cy="484" r="7" fill="#22C55E"/>
    <circle cx="468" cy="506" r="7" fill="#22C55E"/>
    <circle cx="598" cy="436" r="7" fill="#22C55E"/>
    <circle cx="728" cy="462" r="7" fill="#22C55E"/>
    <circle cx="858" cy="372" r="7" fill="#22C55E"/>
    <circle cx="988" cy="404" r="7" fill="#F59E0B"/>
    <circle cx="1118" cy="328" r="7" fill="#F59E0B"/>
  </g>

  <rect x="880" y="332" width="410" height="244" rx="26" fill="#0E1822" stroke="#2B4158"/>
  <path d="M912 380H1258" stroke="url(#accent)" stroke-width="3" stroke-linecap="round" opacity="0.65"/>
  <text x="916" y="414" fill="#F2F5F7" font-family="ui-sans-serif, system-ui, -apple-system, Segoe UI, Roboto, Arial" font-size="28" font-weight="800">Validation before rollout</text>
  <text x="916" y="462" fill="#AAB5BF" font-family="ui-sans-serif, system-ui, -apple-system, Segoe UI, Roboto, Arial" font-size="24">Quiet deployment reduced risk and made comparison more credible.</text>
</svg>
