<svg width="1200" height="720" viewBox="0 0 1200 720" fill="none" xmlns="http://www.w3.org/2000/svg" role="img" aria-label="Reproducible model training system cover visual">
  <defs>
    <radialGradient id="bgRadial" cx="0" cy="0" r="1" gradientUnits="userSpaceOnUse" gradientTransform="translate(250 130) rotate(35) scale(980 820)">
      <stop stop-color="#102A22"/>
      <stop offset="0.55" stop-color="#0B1118"/>
      <stop offset="1" stop-color="#070B10"/>
    </radialGradient>
    <linearGradient id="panelGrad" x1="44" y1="44" x2="1156" y2="676" gradientUnits="userSpaceOnUse">
      <stop stop-color="#101B28"/>
      <stop offset="1" stop-color="#0C141D"/>
    </linearGradient>
    <linearGradient id="accent" x1="84" y1="212" x2="1116" y2="212" gradientUnits="userSpaceOnUse">
      <stop stop-color="#6EE7B7"/>
      <stop offset="0.5" stop-color="#22C55E"/>
      <stop offset="1" stop-color="#F59E0B"/>
    </linearGradient>
    <pattern id="grid" width="36" height="36" patternUnits="userSpaceOnUse">
      <path d="M36 0H0V36" fill="none" stroke="#2A3A4C" stroke-width="1" opacity="0.55"/>
    </pattern>
    <filter id="softGlow" x="-20%" y="-20%" width="140%" height="140%">
      <feGaussianBlur stdDeviation="10" result="blur"/>
      <feColorMatrix in="blur" type="matrix" values="1 0 0 0 0  0 1 0 0 0  0 0 1 0 0  0 0 0 0.32 0" result="glow"/>
      <feMerge>
        <feMergeNode in="glow"/>
        <feMergeNode in="SourceGraphic"/>
      </feMerge>
    </filter>
  </defs>

  <rect width="1200" height="720" rx="40" fill="url(#bgRadial)"/>
  <rect x="44" y="44" width="1112" height="632" rx="32" fill="url(#panelGrad)" stroke="#243242"/>
  <rect x="44" y="44" width="1112" height="632" rx="32" fill="url(#grid)" opacity="0.18"/>
  <path d="M84 210H1116" stroke="url(#accent)" stroke-width="3" opacity="0.9"/>

  <text x="84" y="116" fill="#B9FFE1" font-family="ui-sans-serif, system-ui, -apple-system, Segoe UI, Roboto, Arial" font-size="22" font-weight="750" letter-spacing="3">REPRODUCIBLE TRAINING SYSTEM</text>
  <text x="84" y="164" fill="#F2F5F7" font-family="ui-sans-serif, system-ui, -apple-system, Segoe UI, Roboto, Arial" font-size="48" font-weight="800">Build the model and the process around it</text>

  <g filter="url(#softGlow)">
    <rect x="84" y="236" width="1032" height="306" rx="30" fill="#0B131B" stroke="#22384D"/>

    <rect x="124" y="302" width="184" height="176" rx="24" fill="#0E1822" stroke="#2B4158"/>
    <rect x="344" y="302" width="184" height="176" rx="24" fill="#0E1822" stroke="#2B4158"/>
    <rect x="564" y="302" width="184" height="176" rx="24" fill="#0E1822" stroke="#2B4158"/>
    <rect x="784" y="302" width="184" height="176" rx="24" fill="#0E1822" stroke="#2B4158"/>
    <rect x="1004" y="302" width="112" height="176" rx="24" fill="#0E1822" stroke="#2B4158"/>

    <path d="M308 390H344" stroke="url(#accent)" stroke-width="4" stroke-linecap="round"/>
    <path d="M528 390H564" stroke="url(#accent)" stroke-width="4" stroke-linecap="round"/>
    <path d="M748 390H784" stroke="url(#accent)" stroke-width="4" stroke-linecap="round"/>
    <path d="M968 390H1004" stroke="url(#accent)" stroke-width="4" stroke-linecap="round"/>

    <circle cx="216" cy="390" r="6" fill="#6EE7B7"/>
    <circle cx="436" cy="390" r="6" fill="#22C55E"/>
    <circle cx="656" cy="390" r="6" fill="#22C55E"/>
    <circle cx="876" cy="390" r="6" fill="#F59E0B"/>

    <text x="156" y="378" fill="#F2F5F7" font-family="ui-sans-serif, system-ui, -apple-system, Segoe UI, Roboto, Arial" font-size="24" font-weight="800">Data</text>
    <text x="376" y="378" fill="#F2F5F7" font-family="ui-sans-serif, system-ui, -apple-system, Segoe UI, Roboto, Arial" font-size="24" font-weight="800">Train</text>
    <text x="592" y="378" fill="#F2F5F7" font-family="ui-sans-serif, system-ui, -apple-system, Segoe UI, Roboto, Arial" font-size="24" font-weight="800">Evaluate</text>
    <text x="818" y="378" fill="#F2F5F7" font-family="ui-sans-serif, system-ui, -apple-system, Segoe UI, Roboto, Arial" font-size="24" font-weight="800">Validate</text>
    <text x="1018" y="378" fill="#F2F5F7" font-family="ui-sans-serif, system-ui, -apple-system, Segoe UI, Roboto, Arial" font-size="22" font-weight="800">Iterate</text>

    <path d="M148 440H282" stroke="#2B4158" stroke-width="2" opacity="0.7"/>
    <path d="M368 440H502" stroke="#2B4158" stroke-width="2" opacity="0.7"/>
    <path d="M588 440H722" stroke="#2B4158" stroke-width="2" opacity="0.7"/>
    <path d="M808 440H942" stroke="#2B4158" stroke-width="2" opacity="0.7"/>
  </g>

  <text x="84" y="606" fill="#AAB5BF" font-family="ui-sans-serif, system-ui, -apple-system, Segoe UI, Roboto, Arial" font-size="24">
    Made future retraining and comparison easier instead of treating the model as a one-off artifact.
  </text>
</svg>
