<svg xmlns="http://www.w3.org/2000/svg" xmlns:xlink="http://www.w3.org/1999/xlink" aria-hidden="true" role="img" width="64" height="64" viewBox="0 0 32 32" style="color: rgb(74, 85, 101);"><path fill="currentColor" d="M24 3H8a2 2 0 0 0-2 2v22a2 2 0 0 0 2 2h16a2 2 0 0 0 2-2V5a2 2 0 0 0-2-2m0 2v6H8V5ZM8 19v-6h16v6Zm0 8v-6h16v6Z"></path><circle cx="11" cy="8" r="1" fill="currentColor"></circle><circle cx="11" cy="16" r="1" fill="currentColor"></circle><circle cx="11" cy="24" r="1" fill="currentColor"></circle></svg>