<svg width="1200" height="720" viewBox="0 0 1200 720" fill="none" xmlns="http://www.w3.org/2000/svg" role="img" aria-label="AI intern lending concierge cover visual">
  <defs>
    <linearGradient id="bg" x1="60" y1="30" x2="1140" y2="690" gradientUnits="userSpaceOnUse">
      <stop stop-color="#16191F"/>
      <stop offset="1" stop-color="#0E1116"/>
    </linearGradient>
    <linearGradient id="surface" x1="80" y1="72" x2="1120" y2="648" gradientUnits="userSpaceOnUse">
      <stop stop-color="#1C2028"/>
      <stop offset="1" stop-color="#141920"/>
    </linearGradient>
    <linearGradient id="accent" x1="120" y1="194" x2="1066" y2="194" gradientUnits="userSpaceOnUse">
      <stop stop-color="#8F6A36"/>
      <stop offset="0.5" stop-color="#B48A45"/>
      <stop offset="1" stop-color="#D1AB63"/>
    </linearGradient>
    <filter id="softShadow" x="-20%" y="-20%" width="140%" height="140%">
      <feDropShadow dx="0" dy="10" stdDeviation="10" flood-color="#050608" flood-opacity="0.35"/>
    </filter>
  </defs>

  <rect width="1200" height="720" rx="40" fill="url(#bg)"/>
  <rect x="42" y="42" width="1116" height="636" rx="30" fill="url(#surface)" stroke="#2A313D"/>

  <text x="86" y="102" fill="#D4D9E3" font-family="Inter, ui-sans-serif, system-ui" font-size="20" font-weight="650" letter-spacing="2">SMB LENDING CONCIERGE</text>
  <text x="86" y="148" fill="#F3F5F8" font-family="Inter, ui-sans-serif, system-ui" font-size="42" font-weight="760">Operational intake workflow</text>
  <path d="M86 192H1114" stroke="url(#accent)" stroke-width="3"/>

  <g filter="url(#softShadow)">
    <rect x="86" y="224" width="668" height="392" rx="22" fill="#11161E" stroke="#2A313C"/>
    <text x="118" y="266" fill="#AEB6C2" font-family="Inter, ui-sans-serif, system-ui" font-size="17" font-weight="600">Pipeline (today)</text>

    <rect x="118" y="288" width="145" height="296" rx="16" fill="#171D27" stroke="#2E3744"/>
    <rect x="279" y="288" width="145" height="296" rx="16" fill="#171D27" stroke="#2E3744"/>
    <rect x="440" y="288" width="145" height="296" rx="16" fill="#171D27" stroke="#2E3744"/>
    <rect x="601" y="288" width="121" height="296" rx="16" fill="#171D27" stroke="#2E3744"/>

    <text x="130" y="320" fill="#CFD5DE" font-family="Inter, ui-sans-serif, system-ui" font-size="14" font-weight="600">Lead</text>
    <text x="291" y="320" fill="#CFD5DE" font-family="Inter, ui-sans-serif, system-ui" font-size="14" font-weight="600">Contact</text>
    <text x="452" y="320" fill="#CFD5DE" font-family="Inter, ui-sans-serif, system-ui" font-size="14" font-weight="600">Data Collection</text>
    <text x="613" y="320" fill="#CFD5DE" font-family="Inter, ui-sans-serif, system-ui" font-size="14" font-weight="600">Submission</text>

    <rect x="130" y="340" width="121" height="46" rx="10" fill="#242D39"/>
    <text x="142" y="370" fill="#E4E8EE" font-family="Inter, ui-sans-serif, system-ui" font-size="13" font-weight="550">Baker Metal Co</text>

    <rect x="130" y="396" width="121" height="46" rx="10" fill="#242D39"/>
    <text x="142" y="426" fill="#E4E8EE" font-family="Inter, ui-sans-serif, system-ui" font-size="13" font-weight="550">Southline HVAC</text>

    <rect x="291" y="340" width="121" height="54" rx="10" fill="#263241" stroke="#B48A45"/>
    <text x="302" y="366" fill="#F2F4F7" font-family="Inter, ui-sans-serif, system-ui" font-size="13" font-weight="600">Call connected</text>
    <text x="302" y="385" fill="#BFC7D3" font-family="Inter, ui-sans-serif, system-ui" font-size="12">2 missing fields</text>

    <rect x="291" y="404" width="121" height="54" rx="10" fill="#242D39"/>
    <text x="302" y="430" fill="#E4E8EE" font-family="Inter, ui-sans-serif, system-ui" font-size="13" font-weight="550">Voicemail + link</text>
    <text x="302" y="449" fill="#BFC7D3" font-family="Inter, ui-sans-serif, system-ui" font-size="12">awaiting reply</text>

    <rect x="452" y="340" width="121" height="62" rx="10" fill="#263241" stroke="#B48A45"/>
    <text x="463" y="364" fill="#F2F4F7" font-family="Inter, ui-sans-serif, system-ui" font-size="13" font-weight="600">Owner profile</text>
    <text x="463" y="383" fill="#BFC7D3" font-family="Inter, ui-sans-serif, system-ui" font-size="12">Revenue + docs</text>
    <text x="463" y="398" fill="#BFC7D3" font-family="Inter, ui-sans-serif, system-ui" font-size="12">validated</text>

    <rect x="452" y="412" width="121" height="54" rx="10" fill="#242D39"/>
    <text x="463" y="438" fill="#E4E8EE" font-family="Inter, ui-sans-serif, system-ui" font-size="13" font-weight="550">Missing bank stmt</text>
    <text x="463" y="457" fill="#BFC7D3" font-family="Inter, ui-sans-serif, system-ui" font-size="12">secure upload sent</text>

    <rect x="613" y="340" width="97" height="66" rx="10" fill="#263241" stroke="#B48A45"/>
    <text x="624" y="366" fill="#F2F4F7" font-family="Inter, ui-sans-serif, system-ui" font-size="13" font-weight="600">Ready</text>
    <text x="624" y="385" fill="#BFC7D3" font-family="Inter, ui-sans-serif, system-ui" font-size="12">queue for</text>
    <text x="624" y="400" fill="#BFC7D3" font-family="Inter, ui-sans-serif, system-ui" font-size="12">advisor review</text>

    <path d="M257 368H279" stroke="#5E6C7F" stroke-width="2"/>
    <path d="M418 368H440" stroke="#5E6C7F" stroke-width="2"/>
    <path d="M579 368H601" stroke="#5E6C7F" stroke-width="2"/>
  </g>

  <g filter="url(#softShadow)">
    <rect x="774" y="224" width="340" height="392" rx="22" fill="#11161E" stroke="#2A313C"/>
    <text x="802" y="266" fill="#AEB6C2" font-family="Inter, ui-sans-serif, system-ui" font-size="17" font-weight="600">Applicant record</text>

    <rect x="802" y="286" width="284" height="118" rx="14" fill="#171D27" stroke="#2E3744"/>
    <text x="822" y="315" fill="#E9EDF2" font-family="Inter, ui-sans-serif, system-ui" font-size="16" font-weight="650">Acorn Logistics LLC</text>
    <text x="822" y="338" fill="#BFC7D3" font-family="Inter, ui-sans-serif, system-ui" font-size="13">Requested amount: $185k</text>
    <text x="822" y="359" fill="#BFC7D3" font-family="Inter, ui-sans-serif, system-ui" font-size="13">Annual revenue: $1.2M</text>
    <text x="822" y="380" fill="#BFC7D3" font-family="Inter, ui-sans-serif, system-ui" font-size="13">Risk flags: 1 open item</text>

    <rect x="802" y="418" width="284" height="94" rx="14" fill="#171D27" stroke="#2E3744"/>
    <text x="822" y="447" fill="#E9EDF2" font-family="Inter, ui-sans-serif, system-ui" font-size="15" font-weight="630">Next action</text>
    <rect x="822" y="460" width="244" height="36" rx="8" fill="#2B3646"/>
    <text x="834" y="484" fill="#F5E9D4" font-family="Inter, ui-sans-serif, system-ui" font-size="13" font-weight="600">Send secure submission package</text>

    <rect x="802" y="526" width="284" height="66" rx="14" fill="#171D27" stroke="#2E3744"/>
    <text x="822" y="551" fill="#BFC7D3" font-family="Inter, ui-sans-serif, system-ui" font-size="13">Progress</text>
    <rect x="822" y="560" width="244" height="14" rx="7" fill="#28313D"/>
    <rect x="822" y="560" width="181" height="14" rx="7" fill="url(#accent)"/>
  </g>
</svg>
