<svg width="1600" height="1000" viewBox="0 0 1600 1000" fill="none" xmlns="http://www.w3.org/2000/svg" role="img" aria-label="Abstract system orchestration diagram with routed data flow">
  <defs>
    <linearGradient id="bg" x1="0" y1="0" x2="0" y2="1000" gradientUnits="userSpaceOnUse">
      <stop stop-color="#090C12"/>
      <stop offset="1" stop-color="#111826"/>
    </linearGradient>
    <pattern id="grid" width="72" height="72" patternUnits="userSpaceOnUse">
      <path d="M72 0H0V72" stroke="#1D2739" stroke-width="1"/>
    </pattern>
    <filter id="softGlow" x="-20%" y="-20%" width="140%" height="140%">
      <feGaussianBlur stdDeviation="3" result="blur"/>
      <feMerge>
        <feMergeNode in="blur"/>
        <feMergeNode in="SourceGraphic"/>
      </feMerge>
    </filter>
  </defs>

  <rect width="1600" height="1000" fill="url(#bg)"/>
  <rect x="72" y="72" width="1456" height="856" fill="url(#grid)" opacity="0.65"/>

  <g stroke="#313F58" fill="#0F1624" stroke-width="2">
    <rect x="134" y="154" width="360" height="202" rx="14"/>
    <rect x="620" y="126" width="360" height="202" rx="14"/>
    <rect x="1106" y="162" width="360" height="202" rx="14"/>
    <rect x="198" y="494" width="330" height="236" rx="14"/>
    <rect x="620" y="420" width="360" height="288" rx="14"/>
    <rect x="1072" y="514" width="394" height="254" rx="14"/>
  </g>

  <g fill="#E8EEFF" stroke="#BFCFFF" stroke-width="2">
    <circle cx="314" cy="254" r="15"/>
    <circle cx="800" cy="226" r="15"/>
    <circle cx="1286" cy="262" r="15"/>
    <circle cx="364" cy="612" r="15"/>
    <circle cx="800" cy="564" r="15"/>
    <circle cx="1270" cy="642" r="15"/>
  </g>

  <g stroke-linecap="square" stroke-width="6" filter="url(#softGlow)">
    <path d="M329 254H551V226H785" stroke="#5E7EFF"/>
    <path d="M815 226H1030V262H1271" stroke="#5E7EFF"/>
    <path d="M314 269V612H349" stroke="#91F2D2"/>
    <path d="M815 241V564H785" stroke="#91F2D2"/>
    <path d="M1286 277V642H1285" stroke="#91F2D2"/>
    <path d="M379 612H602V564H785" stroke="#5E7EFF"/>
    <path d="M815 564H1008V642H1255" stroke="#5E7EFF"/>
    <path d="M379 612H551V392H800" stroke="#91F2D2"/>
  </g>

  <g fill="#5E7EFF">
    <rect x="551" y="220" width="10" height="10"/>
    <rect x="1030" y="256" width="10" height="10"/>
    <rect x="596" y="558" width="10" height="10"/>
    <rect x="1002" y="636" width="10" height="10"/>
  </g>

  <g fill="#F6C35E">
    <rect x="276" y="88" width="18" height="18"/>
    <rect x="1304" y="88" width="18" height="18"/>
    <rect x="88" y="490" width="18" height="18"/>
    <rect x="1494" y="490" width="18" height="18"/>
    <rect x="276" y="894" width="18" height="18"/>
    <rect x="1304" y="894" width="18" height="18"/>
  </g>

  <g fill="#25344E" opacity="0.8">
    <rect x="452" y="132" width="44" height="8"/>
    <rect x="1014" y="170" width="36" height="8"/>
    <rect x="546" y="698" width="40" height="8"/>
    <rect x="1040" y="476" width="52" height="8"/>
    <rect x="148" y="430" width="58" height="8"/>
  </g>
</svg>
