<svg width="1600" height="1000" viewBox="0 0 1600 1000" fill="none" xmlns="http://www.w3.org/2000/svg" role="img" aria-label="Editorial product workflow showing capture, draft, review, and publish stages">
  <defs>
    <linearGradient id="bg" x1="120" y1="40" x2="1440" y2="960" gradientUnits="userSpaceOnUse">
      <stop stop-color="#0A0D13"/>
      <stop offset="1" stop-color="#171E2D"/>
    </linearGradient>
    <linearGradient id="stageFill" x1="0" y1="0" x2="0" y2="1">
      <stop stop-color="#161E2F"/>
      <stop offset="1" stop-color="#111826"/>
    </linearGradient>
    <linearGradient id="activeBorder" x1="0" y1="0" x2="1" y2="1">
      <stop stop-color="#8FA8FF"/>
      <stop offset="1" stop-color="#5A7BFF"/>
    </linearGradient>
    <filter id="softShadow" x="-25%" y="-25%" width="150%" height="150%">
      <feDropShadow dx="0" dy="20" stdDeviation="20" flood-color="#02040A" flood-opacity="0.45"/>
    </filter>
    <filter id="lineGlow" x="-20%" y="-20%" width="140%" height="140%">
      <feGaussianBlur stdDeviation="2.2" result="blur"/>
      <feMerge>
        <feMergeNode in="blur"/>
        <feMergeNode in="SourceGraphic"/>
      </feMerge>
    </filter>
    <pattern id="dotGrid" width="24" height="24" patternUnits="userSpaceOnUse">
      <circle cx="1.5" cy="1.5" r="1.5" fill="#273149" fill-opacity="0.5"/>
    </pattern>
  </defs>

  <rect width="1600" height="1000" fill="url(#bg)"/>
  <rect x="80" y="72" width="1440" height="856" rx="34" fill="url(#dotGrid)" opacity="0.55"/>

  <rect x="132" y="118" width="1336" height="112" rx="24" fill="#0F1522" stroke="#27324B" stroke-width="2"/>
  <text x="174" y="166" fill="#F5F8FF" font-family="Inter, Arial, sans-serif" font-size="34" font-weight="700">AI-Driven LinkedIn Content Workflow</text>
  <text x="174" y="203" fill="#9EA8BE" font-family="Inter, Arial, sans-serif" font-size="20" font-weight="500">Operator dashboard · Weekly publishing system</text>

  <g filter="url(#softShadow)">
    <rect x="128" y="280" width="304" height="560" rx="24" fill="url(#stageFill)" stroke="#2E3B58" stroke-width="2"/>
    <rect x="464" y="280" width="304" height="560" rx="24" fill="url(#stageFill)" stroke="url(#activeBorder)" stroke-width="2.5"/>
    <rect x="800" y="280" width="304" height="560" rx="24" fill="url(#stageFill)" stroke="#2E3B58" stroke-width="2"/>
    <rect x="1136" y="280" width="304" height="560" rx="24" fill="url(#stageFill)" stroke="#2E3B58" stroke-width="2"/>
  </g>

  <g fill="#9CABCC" font-family="Inter, Arial, sans-serif" font-size="17" font-weight="600" letter-spacing="0.04em">
    <text x="160" y="340">CAPTURE</text>
    <text x="496" y="340">DRAFT</text>
    <text x="832" y="340">REVIEW</text>
    <text x="1168" y="340">PUBLISH</text>
  </g>

  <g fill="#F4F7FF" font-family="Inter, Arial, sans-serif" font-size="27" font-weight="700">
    <text x="160" y="386">Notes Inbox</text>
    <text x="496" y="386">Post Builder</text>
    <text x="832" y="386">Approval Queue</text>
    <text x="1168" y="386">Schedule</text>
  </g>

  <g>
    <rect x="160" y="420" width="240" height="114" rx="14" fill="#1B2539" stroke="#334364"/>
    <text x="180" y="454" fill="#D7E0F8" font-family="Inter, Arial, sans-serif" font-size="16" font-weight="600">Voice memo</text>
    <rect x="180" y="470" width="168" height="8" rx="4" fill="#4B5F8E"/>
    <rect x="180" y="487" width="206" height="8" rx="4" fill="#3B4D74"/>
    <rect x="180" y="504" width="142" height="8" rx="4" fill="#3B4D74"/>

    <rect x="160" y="554" width="240" height="114" rx="14" fill="#1B2539" stroke="#334364"/>
    <text x="180" y="588" fill="#D7E0F8" font-family="Inter, Arial, sans-serif" font-size="16" font-weight="600">Meeting notes</text>
    <rect x="180" y="604" width="190" height="8" rx="4" fill="#4B5F8E"/>
    <rect x="180" y="621" width="206" height="8" rx="4" fill="#3B4D74"/>
    <rect x="180" y="638" width="154" height="8" rx="4" fill="#3B4D74"/>

    <rect x="160" y="690" width="240" height="114" rx="14" fill="#1B2539" stroke="#334364"/>
    <text x="180" y="724" fill="#D7E0F8" font-family="Inter, Arial, sans-serif" font-size="16" font-weight="600">Wins / metrics</text>
    <rect x="180" y="740" width="196" height="8" rx="4" fill="#4B5F8E"/>
    <rect x="180" y="757" width="165" height="8" rx="4" fill="#3B4D74"/>
    <rect x="180" y="774" width="129" height="8" rx="4" fill="#3B4D74"/>
  </g>

  <g>
    <rect x="496" y="420" width="240" height="190" rx="14" fill="#162239" stroke="#4862A8"/>
    <text x="516" y="455" fill="#F0F4FF" font-family="Inter, Arial, sans-serif" font-size="16" font-weight="600">Draft v3</text>
    <rect x="516" y="472" width="190" height="8" rx="4" fill="#6B86CE"/>
    <rect x="516" y="489" width="205" height="8" rx="4" fill="#5B73B2"/>
    <rect x="516" y="506" width="188" height="8" rx="4" fill="#5B73B2"/>
    <rect x="516" y="523" width="203" height="8" rx="4" fill="#5B73B2"/>
    <rect x="516" y="540" width="176" height="8" rx="4" fill="#5B73B2"/>
    <rect x="516" y="557" width="202" height="8" rx="4" fill="#5B73B2"/>
    <rect x="516" y="574" width="146" height="8" rx="4" fill="#5B73B2"/>

    <rect x="496" y="634" width="240" height="170" rx="14" fill="#1A2946" stroke="#4862A8"/>
    <text x="516" y="668" fill="#D7E3FF" font-family="Inter, Arial, sans-serif" font-size="16" font-weight="600">Tone guardrails</text>
    <rect x="516" y="685" width="92" height="26" rx="13" fill="#2E4FA1"/>
    <text x="537" y="702" fill="#DDE7FF" font-family="Inter, Arial, sans-serif" font-size="12" font-weight="600">clear</text>
    <rect x="618" y="685" width="104" height="26" rx="13" fill="#2E4FA1"/>
    <text x="636" y="702" fill="#DDE7FF" font-family="Inter, Arial, sans-serif" font-size="12" font-weight="600">specific</text>
    <rect x="516" y="722" width="206" height="8" rx="4" fill="#5B73B2"/>
    <rect x="516" y="739" width="190" height="8" rx="4" fill="#5B73B2"/>
    <rect x="516" y="756" width="158" height="8" rx="4" fill="#5B73B2"/>
  </g>

  <g>
    <rect x="832" y="420" width="240" height="126" rx="14" fill="#1B2539" stroke="#334364"/>
    <text x="852" y="455" fill="#EAF0FF" font-family="Inter, Arial, sans-serif" font-size="16" font-weight="600">Editor review</text>
    <rect x="852" y="472" width="170" height="8" rx="4" fill="#516793"/>
    <rect x="852" y="489" width="202" height="8" rx="4" fill="#3D4E74"/>
    <rect x="852" y="506" width="182" height="8" rx="4" fill="#3D4E74"/>

    <rect x="832" y="566" width="240" height="126" rx="14" fill="#1B2539" stroke="#334364"/>
    <text x="852" y="601" fill="#EAF0FF" font-family="Inter, Arial, sans-serif" font-size="16" font-weight="600">Compliance pass</text>
    <rect x="852" y="618" width="188" height="8" rx="4" fill="#516793"/>
    <rect x="852" y="635" width="202" height="8" rx="4" fill="#3D4E74"/>
    <rect x="852" y="652" width="148" height="8" rx="4" fill="#3D4E74"/>

    <rect x="832" y="712" width="240" height="92" rx="14" fill="#152F2A" stroke="#2E8574"/>
    <circle cx="864" cy="746" r="10" fill="#53D5BD"/>
    <text x="884" y="751" fill="#C7F8EF" font-family="Inter, Arial, sans-serif" font-size="16" font-weight="600">Approved for schedule</text>
  </g>

  <g>
    <rect x="1168" y="420" width="240" height="384" rx="14" fill="#1B2539" stroke="#334364"/>
    <text x="1188" y="454" fill="#EEF3FF" font-family="Inter, Arial, sans-serif" font-size="16" font-weight="600">Week 18</text>

    <rect x="1188" y="476" width="42" height="24" rx="6" fill="#2D3D62"/>
    <rect x="1238" y="476" width="42" height="24" rx="6" fill="#2D3D62"/>
    <rect x="1288" y="476" width="42" height="24" rx="6" fill="#2D3D62"/>
    <rect x="1338" y="476" width="42" height="24" rx="6" fill="#2D3D62"/>

    <rect x="1188" y="512" width="192" height="52" rx="10" fill="#3454AA"/>
    <text x="1204" y="544" fill="#E9EFFF" font-family="Inter, Arial, sans-serif" font-size="14" font-weight="600">Tue 10:00 — founder story</text>

    <rect x="1188" y="576" width="192" height="52" rx="10" fill="#2E4B95"/>
    <text x="1204" y="608" fill="#E9EFFF" font-family="Inter, Arial, sans-serif" font-size="14" font-weight="600">Thu 09:30 — product note</text>

    <rect x="1188" y="640" width="192" height="52" rx="10" fill="#27417F"/>
    <text x="1204" y="672" fill="#E9EFFF" font-family="Inter, Arial, sans-serif" font-size="14" font-weight="600">Fri 08:45 — proof thread</text>

    <rect x="1188" y="716" width="112" height="44" rx="22" fill="#173B31"/>
    <text x="1220" y="744" fill="#ACF2E2" font-family="Inter, Arial, sans-serif" font-size="14" font-weight="700">Queued</text>
  </g>

  <g stroke="#6C86D6" stroke-width="4" stroke-linecap="round" filter="url(#lineGlow)">
    <path d="M432 560H464"/>
    <path d="M768 560H800"/>
    <path d="M1104 560H1136"/>
  </g>

  <g fill="#8EA7FF">
    <circle cx="448" cy="560" r="7"/>
    <circle cx="784" cy="560" r="7"/>
    <circle cx="1120" cy="560" r="7"/>
  </g>
</svg>
