<svg width="24" height="24" viewBox="0 0 24 24" fill="none" xmlns="http://www.w3.org/2000/svg">
<path d="M11.25 14.25L10.1894 15.3106L12.8788 18H3V8.25H1.5V18C1.5 18.8285 2.17155 19.5 3 19.5H12.8789L10.1895 22.1894L11.2501 23.25L15.7501 18.75L11.25 14.25Z" fill="#66BDFF"/>
<path d="M18 13.5V12H19.5V3H18V1.5H22.5V3H21V12H22.5V13.5H18Z" fill="#66BDFF"/>
<path d="M15.75 13.5H17.25L13.125 1.5L10.875 1.5066L6.75 13.5H8.25L9.24997 10.5H14.7501L15.75 13.5ZM9.75 9L12 2.25L14.25 9H9.75Z" fill="#66BDFF"/>
</svg>
