<svg width="21" height="21" viewBox="0 0 21 21" fill="none" xmlns="http://www.w3.org/2000/svg">
<path d="M2.0025 19.5L6.795 10.5L12.27 15.3675C12.4414 15.5198 12.6455 15.6308 12.8665 15.6919C13.0876 15.753 13.3197 15.7626 13.545 15.72C13.7724 15.6774 13.9868 15.5828 14.1716 15.4436C14.3563 15.3044 14.5064 15.1243 14.61 14.9175L18.75 6.675L17.385 6L13.2675 14.25L7.7925 9.3825C7.62541 9.22711 7.42506 9.11188 7.20672 9.0456C6.98837 8.97931 6.75778 8.96372 6.5325 9C6.31002 9.03691 6.09873 9.12351 5.91434 9.25336C5.72995 9.38321 5.57722 9.55297 5.4675 9.75L1.5 17.25V0H0V19.5C0 19.8978 0.158035 20.2794 0.43934 20.5607C0.720644 20.842 1.10218 21 1.5 21H21V19.5H2.0025Z" fill="#52A8FF"/>
</svg>
