<svg width="21" height="14" viewBox="0 0 21 14" fill="none" xmlns="http://www.w3.org/2000/svg">
<path d="M13.5 0V1.5H18.4394L12 7.93942L8.78025 4.71975C8.71064 4.65008 8.62798 4.59481 8.537 4.55709C8.44601 4.51938 8.34849 4.49997 8.25 4.49997C8.15151 4.49997 8.05399 4.51938 7.963 4.55709C7.87202 4.59481 7.78936 4.65008 7.71975 4.71975L0 12.4394L1.06058 13.5L8.25 6.31058L11.4697 9.53025C11.5394 9.59992 11.622 9.6552 11.713 9.69291C11.804 9.73062 11.9015 9.75003 12 9.75003C12.0985 9.75003 12.196 9.73062 12.287 9.69291C12.378 9.6552 12.4606 9.59992 12.5303 9.53025L19.5 2.56057V7.5H21V0H13.5Z" fill="#52A8FF"/>
</svg>
