<svg width="24" height="24" viewBox="0 0 24 24" fill="none" xmlns="http://www.w3.org/2000/svg">
<path d="M15.75 18H8.25V19.5H15.75V18Z" fill="#52A8FF"/>
<path d="M14.25 21H9.75V22.5H14.25V21Z" fill="#52A8FF"/>
<path d="M11.9999 1.5C10.0108 1.5 8.1031 2.29018 6.69658 3.6967C5.29006 5.10322 4.49988 7.01088 4.49988 9C4.44916 10.09 4.65796 11.1765 5.1091 12.17C5.56024 13.1636 6.24084 14.0358 7.09488 14.715C7.84488 15.4125 8.24988 15.81 8.24988 16.5H9.74988C9.74988 15.12 8.91738 14.3475 8.10738 13.605C7.4064 13.0682 6.84774 12.3677 6.48032 11.5649C6.1129 10.7621 5.94794 9.88138 5.99988 9C5.99988 7.4087 6.63202 5.88258 7.75724 4.75736C8.88246 3.63214 10.4086 3 11.9999 3C13.5912 3 15.1173 3.63214 16.2425 4.75736C17.3677 5.88258 17.9999 7.4087 17.9999 9C18.051 9.88203 17.8848 10.7631 17.5161 11.566C17.1473 12.3689 16.5872 13.069 15.8849 13.605C15.0824 14.355 14.2499 15.105 14.2499 16.5H15.7499C15.7499 15.81 16.1474 15.4125 16.9049 14.7075C17.7583 14.0295 18.4386 13.1585 18.8898 12.1663C19.3409 11.174 19.55 10.0888 19.4999 9C19.4999 8.01509 19.3059 7.03982 18.929 6.12987C18.5521 5.21993 17.9996 4.39314 17.3032 3.6967C16.6067 3.00026 15.7799 2.44781 14.87 2.0709C13.9601 1.69399 12.9848 1.5 11.9999 1.5Z" fill="#52A8FF"/>
</svg>
