<svg width="24" height="24" viewBox="0 0 24 24" fill="none" xmlns="http://www.w3.org/2000/svg">
<path d="M20.25 6.75H18V4.5C18 4.10218 17.842 3.72064 17.5607 3.43934C17.2794 3.15804 16.8978 3 16.5 3H7.5C7.10218 3 6.72064 3.15804 6.43934 3.43934C6.15804 3.72064 6 4.10218 6 4.5V6.75H3.75C3.15326 6.75 2.58097 6.98705 2.15901 7.40901C1.73705 7.83097 1.5 8.40326 1.5 9V19.5C1.5 19.8978 1.65804 20.2794 1.93934 20.5607C2.22064 20.842 2.60218 21 3 21H21C21.3978 21 21.7794 20.842 22.0607 20.5607C22.342 20.2794 22.5 19.8978 22.5 19.5V9C22.5 8.40326 22.2629 7.83097 21.841 7.40901C21.419 6.98705 20.8467 6.75 20.25 6.75ZM7.5 4.5H16.5V6.75H7.5V4.5ZM21 19.5H3V12.75H9V16.5H15V12.75H21V19.5ZM10.5 12.75H13.5V15H10.5V12.75ZM3 11.25V9C3 8.80109 3.07902 8.61032 3.21967 8.46967C3.36032 8.32902 3.55109 8.25 3.75 8.25H20.25C20.4489 8.25 20.6397 8.32902 20.7803 8.46967C20.921 8.61032 21 8.80109 21 9V11.25H3Z" fill="#52A8FF"/>
</svg>
