<svg width="24" height="24" viewBox="0 0 24 24" fill="none" xmlns="http://www.w3.org/2000/svg">
<path d="M12 17.25C11.7775 17.25 11.56 17.316 11.375 17.4396C11.19 17.5632 11.0458 17.7389 10.9606 17.9445C10.8755 18.15 10.8532 18.3762 10.8966 18.5945C10.94 18.8127 11.0472 19.0132 11.2045 19.1705C11.3618 19.3278 11.5623 19.435 11.7805 19.4784C11.9988 19.5218 12.225 19.4995 12.4305 19.4144C12.6361 19.3292 12.8118 19.185 12.9354 19C13.059 18.815 13.125 18.5975 13.125 18.375C13.125 18.0766 13.0065 17.7905 12.7955 17.5795C12.5845 17.3685 12.2984 17.25 12 17.25Z" fill="#52A8FF"/>
<path d="M12.75 9H11.25V15.75H12.75V9Z" fill="#52A8FF"/>
<path d="M21.75 22.5H2.25001C2.12115 22.5 1.99447 22.4668 1.88218 22.4036C1.76988 22.3404 1.67576 22.2493 1.60889 22.1392C1.54203 22.0291 1.50466 21.9035 1.50041 21.7748C1.49615 21.646 1.52515 21.5183 1.58461 21.4039L11.3346 2.65395C11.3979 2.53217 11.4935 2.43011 11.6108 2.35888C11.7281 2.28765 11.8627 2.24998 12 2.24998C12.1373 2.24998 12.2719 2.28765 12.3892 2.35888C12.5065 2.43011 12.6021 2.53217 12.6654 2.65395L22.4154 21.4039C22.4749 21.5183 22.5039 21.646 22.4996 21.7748C22.4953 21.9035 22.458 22.0291 22.3911 22.1392C22.3242 22.2493 22.2301 22.3404 22.1178 22.4036C22.0055 22.4668 21.8789 22.5 21.75 22.5ZM3.48803 21H20.512L20.5135 20.9975L12.0015 4.62855H11.9985L3.48653 20.9975L3.48803 21Z" fill="#52A8FF"/>
</svg>
